<svg width="90" height="85" viewBox="0 0 90 85" fill="none" xmlns="http://www.w3.org/2000/svg">
<path fill-rule="evenodd" clip-rule="evenodd" d="M44.932 0L45.8963 3.24662H49.0169L46.4923 5.25314L47.4566 8.49976L44.932 6.49324L42.4074 8.49976L43.3717 5.25314L40.8471 3.24662H43.9677L44.932 0ZM27.499 7.186L28.1797 9.47773H30.3824L28.6004 10.8941L29.2811 13.1858L27.499 11.7695L25.7169 13.1858L26.3976 10.8941L24.6155 9.47773H26.8183L27.499 7.186ZM18.9087 12.7137L19.5894 15.0054H21.7922L20.0101 16.4218L20.6908 18.7135L18.9087 17.2972L17.1267 18.7135L17.8074 16.4218L16.0253 15.0054H18.2281L18.9087 12.7137ZM2.31086 60.7417C5.31016 63.0401 13.7118 66.7439 28.0043 66.3325C27.8021 66.7747 27.5832 67.8065 27.499 68.2672H30.0255C30.1939 66.0561 31.4403 61.4681 35.0785 60.8048L35.2337 60.7672C37.5204 60.2133 41.1422 59.3361 41.1422 55.5535C41.1422 54.013 39.9809 52.4287 38.583 50.5217C36.4696 47.6384 33.8153 44.0173 33.8153 38.694L33.8191 38.6518C34.0758 35.8413 34.8755 27.0844 44.6793 26.8094C45.1846 26.8094 56.3014 26.8094 55.7961 38.694C55.7374 40.0733 55.1183 46.4398 49.9971 52.2517C49.3483 52.988 48.7946 53.8311 48.6922 54.8071C48.5186 56.4627 48.7396 58.9151 51.2483 59.6992C52.7499 59.973 58.9614 61.3315 59.3244 65.6549C59.3297 65.7183 59.391 65.7639 59.4527 65.7483C60.134 65.5766 60.8417 65.5173 61.2197 65.5056C61.2869 65.5035 61.3346 65.4384 61.3151 65.3742L61.1279 64.7601C61.113 64.7112 61.1351 64.66 61.1821 64.6399C69.2087 61.2111 85.0525 53.1036 84.8511 47.8147C84.8096 47.6786 84.8022 47.5054 84.793 47.2925C84.7464 46.2079 84.6556 44.0942 79.798 40.6287C79.798 40.4075 80.4718 40.5365 80.8087 40.6287L79.2927 38.1412C82.9983 39.5231 90.3084 43.6136 89.9041 48.9202C89.9041 50.0257 88.1356 58.3173 65.3969 65.7797C60.9816 67.2287 56.8903 68.5839 53.1432 69.8251C37.5923 74.9761 27.9699 78.1634 25.7304 77.9407C25.3262 77.7196 24.046 76.3745 23.4565 75.7296C20.5939 75.4612 14.713 74.4107 13.4505 72.3251C13.4066 72.2526 13.4677 72.1602 13.5519 72.171C15.8416 72.4654 33.7846 73.0977 39.5367 70.3758C39.6303 70.3315 39.5923 70.1852 39.4895 70.1729C38.8389 70.095 37.8155 69.8762 37.1419 69.7192C37.0479 69.6973 37.0379 69.5688 37.1268 69.5314L42.2648 67.3696C42.3783 67.3219 42.325 67.1464 42.2052 67.1745C34.9137 68.8844 20.796 71.6087 13.3504 68.2672C13.1707 68.1885 12.8836 68.0931 12.5124 67.9698L12.5113 67.9694L12.5111 67.9693L12.511 67.9693C10.3663 67.2567 5.418 65.6124 2.14867 60.8914C2.08204 60.7952 2.21797 60.6706 2.31086 60.7417ZM9.26781 41.0012C5.63948 43.6129 1.3494 49.3976 9.81328 54.4479C16.827 58.0102 23.5924 60.7574 31.0944 60.2655C31.1755 60.2601 31.2297 60.3477 31.1858 60.4162C30.7524 61.0911 29.9483 62.176 29.5488 62.7018C29.5305 62.7259 29.504 62.7399 29.4737 62.7407C21.0167 62.9689 5.30647 60.9224 0.730087 51.8583C-0.841935 48.7447 0.250162 44.9431 2.80613 42.5698C4.45037 41.0431 6.73851 39.4652 9.86712 38.3739C10.06 38.3066 10.2246 38.5507 10.1008 38.7131C9.69418 39.2466 9.27026 39.8851 8.98644 40.3333C8.90483 40.4622 8.99819 40.6286 9.15075 40.6286C9.3456 40.6286 9.42595 40.8874 9.26781 41.0012ZM70.6253 15.0054L69.9446 12.7137L69.2639 15.0054H67.0611L68.8432 16.4218L68.1625 18.7135L69.9446 17.2972L71.7266 18.7135L71.046 16.4218L72.828 15.0054H70.6253ZM15.8769 24.3219C15.8769 24.9325 15.4244 25.4275 14.8663 25.4275C14.3082 25.4275 13.8557 24.9325 13.8557 24.3219C13.8557 23.7113 14.3082 23.2164 14.8663 23.2164C15.4244 23.2164 15.8769 23.7113 15.8769 24.3219ZM74.4923 25.4275C75.0505 25.4275 75.5029 24.9325 75.5029 24.3219C75.5029 23.7113 75.0505 23.2164 74.4923 23.2164C73.9342 23.2164 73.4817 23.7113 73.4817 24.3219C73.4817 24.9325 73.9342 25.4275 74.4923 25.4275ZM62.5404 9.47773L61.8597 7.186L61.179 9.47773H58.9763L60.7583 10.8941L60.0777 13.1858L61.8597 11.7695L63.6418 13.1858L62.9611 10.8941L64.7432 9.47773H62.5404ZM11.7898 50.0904C11.4125 21.7588 34.0129 12.3419 44.6794 12.1609C76.7663 12.9901 79.2928 50.042 77.7769 51.4076C71.5239 57.0409 65.5386 59.8916 62.3548 61.2391C61.187 61.7333 59.6047 61.06 58.6157 60.2662C56.8354 58.8373 54.0089 57.834 52.6514 57.3521L52.6513 57.3521L52.6513 57.3521L52.6508 57.3519L52.6468 57.3505C52.4989 57.298 52.3685 57.2517 52.259 57.2117C52.112 57.1581 51.8452 56.961 51.5681 56.5441C51.0786 55.8076 51.2915 54.827 51.7574 54.0752C64.0174 34.2924 54.4589 27.2901 48.416 25.1501C46.0082 24.2974 43.3693 24.4671 40.9686 25.3398C26.5291 30.5888 32.473 46.3589 38.2384 54.7386C38.4773 55.0858 38.5681 55.4679 38.4923 55.8824C38.3821 56.4848 37.9842 57.0846 37.4017 57.2734C27.0672 60.6241 16.9244 54.911 13.1567 52.5352C12.3202 52.0078 11.8029 51.0792 11.7898 50.0904ZM30.0256 20.4525L30.0736 20.6476C30.4421 22.1448 31.5784 23.3335 33.0574 23.7691C31.5784 24.2048 30.4421 25.3935 30.0736 26.8907L30.0256 27.0858L29.9776 26.8907C29.6091 25.3935 28.4729 24.2048 26.9938 23.7691C28.4729 23.3335 29.6091 22.1448 29.9776 20.6476L30.0256 20.4525ZM25.0485 45.6361L24.9725 45.3272L24.8965 45.6361C24.313 48.0066 22.514 49.8887 20.1721 50.5785C22.514 51.2683 24.313 53.1503 24.8965 55.5209L24.9725 55.8298L25.0485 55.5209C25.632 53.1503 27.431 51.2683 29.7729 50.5785C27.431 49.8887 25.632 48.0066 25.0485 45.6361ZM64.639 28.1913L64.7171 28.5535C65.2902 31.2101 67.3132 33.3161 69.9447 33.9954C67.3132 34.6747 65.2902 36.7806 64.7171 39.4373L64.639 39.7995L64.5609 39.4373C63.9878 36.7806 61.9648 34.6747 59.3333 33.9954C61.9648 33.3161 63.9878 31.2101 64.5609 28.5535L64.639 28.1913ZM18.5884 36.8837L18.5551 36.7592L18.5219 36.8837C18.2576 37.8723 17.5085 38.6585 16.5339 38.9703C17.5085 39.2821 18.2576 40.0683 18.5219 41.0569L18.5551 41.1814L18.5884 41.0569C18.8527 40.0683 19.6018 39.2821 20.5764 38.9703C19.6018 38.6585 18.8527 37.8723 18.5884 36.8837ZM71.9658 42.0105L72.0022 42.1079C72.3538 43.05 73.0689 43.8115 73.9871 44.2216C73.0689 44.6317 72.3538 45.3932 72.0022 46.3353L71.9658 46.4327L71.9295 46.3353C71.5779 45.3932 70.8628 44.6317 69.9446 44.2216C70.8628 43.8115 71.5779 43.05 71.9295 42.1079L71.9658 42.0105ZM56.8431 23.3138L56.8068 23.2164L56.7704 23.3138C56.4188 24.2559 55.7037 25.0174 54.7855 25.4275C55.7037 25.8375 56.4188 26.599 56.7704 27.5411L56.8068 27.6385L56.8431 27.5411C57.1947 26.599 57.9098 25.8375 58.828 25.4275C57.9098 25.0174 57.1947 24.2559 56.8431 23.3138ZM22.9513 29.8496L22.9876 29.947C23.3392 30.8891 24.0543 31.6506 24.9725 32.0607C24.0543 32.4708 23.3392 33.2323 22.9876 34.1744L22.9513 34.2718L22.9149 34.1744C22.5633 33.2323 21.8482 32.4708 20.9301 32.0607C21.8482 31.6506 22.5633 30.8891 22.9149 29.947L22.9513 29.8496ZM60.8946 42.6851L60.8492 42.5633L60.8037 42.6851C60.3642 43.8627 59.4704 44.8146 58.3227 45.3272C59.4704 45.8398 60.3642 46.7917 60.8037 47.9693L60.8492 48.091L60.8946 47.9693C61.3341 46.7917 62.228 45.8398 63.3757 45.3272C62.228 44.8146 61.3341 43.8627 60.8946 42.6851ZM64.3863 52.7896L64.4317 52.9113C64.8712 54.089 65.7651 55.0408 66.9128 55.5534C65.7651 56.066 64.8712 57.0179 64.4317 58.1955L64.3863 58.3173L64.3409 58.1955C63.9013 57.0179 63.0075 56.066 61.8598 55.5534C63.0075 55.0408 63.9013 54.089 64.3409 52.9113L64.3863 52.7896ZM46.8269 16.8595C47.1758 16.8595 47.4586 16.5501 47.4586 16.1685C47.4586 15.7869 47.1758 15.4776 46.8269 15.4776C46.4781 15.4776 46.1953 15.7869 46.1953 16.1685C46.1953 16.5501 46.4781 16.8595 46.8269 16.8595ZM58.07 19.7615C58.07 20.2958 57.6741 20.7289 57.1857 20.7289C56.6973 20.7289 56.3014 20.2958 56.3014 19.7615C56.3014 19.2273 56.6973 18.7942 57.1857 18.7942C57.6741 18.7942 58.07 19.2273 58.07 19.7615ZM56.6804 55.5535C57.4479 55.5535 58.07 54.8729 58.07 54.0333C58.07 53.1938 57.4479 52.5132 56.6804 52.5132C55.913 52.5132 55.2909 53.1938 55.2909 54.0333C55.2909 54.8729 55.913 55.5535 56.6804 55.5535ZM18.6562 47.2619C18.6562 47.7198 18.3169 48.091 17.8983 48.091C17.4796 48.091 17.1403 47.7198 17.1403 47.2619C17.1403 46.8039 17.4796 46.4327 17.8983 46.4327C18.3169 46.4327 18.6562 46.8039 18.6562 47.2619ZM28.7624 34.8245C29.3205 34.8245 29.773 34.3295 29.773 33.719C29.773 33.1084 29.3205 32.6134 28.7624 32.6134C28.2042 32.6134 27.7518 33.1084 27.7518 33.719C27.7518 34.3295 28.2042 34.8245 28.7624 34.8245ZM34.1691 53.3424C34.1691 53.9529 33.7167 54.4479 33.1585 54.4479C32.6004 54.4479 32.1479 53.9529 32.1479 53.3424C32.1479 52.7318 32.6004 52.2368 33.1585 52.2368C33.7167 52.2368 34.1691 52.7318 34.1691 53.3424ZM78.0295 65.5033C81.2881 64.4549 85.5617 61.9979 87.5747 60.7253C87.6608 60.6709 87.7609 60.7625 87.711 60.8514C84.6921 66.2276 74.4578 70.4891 72.7238 71.031C64.5586 73.1577 44.9869 78.8642 41.9314 80.7722C41.8454 80.8259 41.8958 80.9272 41.995 80.9057C49.3595 79.3128 63.4074 76.2927 66.069 75.7899C66.168 75.7712 66.2137 75.8954 66.1371 75.9608C60.5234 80.7566 58.1683 82.3974 48.4691 84.5739C40.7864 86.2979 32.3197 82.3861 28.7763 80.0542C28.6941 80.0001 28.7322 79.8475 28.8293 79.8319C29.2301 79.7672 30.0472 79.6198 31.5414 79.3226C34.3206 78.7698 73.7344 66.8852 78.0295 65.5033ZM36.1062 38.6939C36.022 39.9837 36.2073 42.9503 37.6221 44.498C39.3907 46.4327 42.1699 47.2619 42.9278 47.2619C42.9278 46.4327 42.9278 43.6689 41.1593 41.7342C41.1241 41.6957 41.0816 41.6479 41.0322 41.5923L41.0321 41.5921C40.3701 40.8472 38.4569 38.6939 36.1062 38.6939ZM46.7176 47.2619C46.7176 46.0642 47.1219 43.2819 48.7388 41.7342C50.7601 39.7995 52.0233 38.9703 53.7919 38.6939C53.7919 38.8033 53.8007 38.9511 53.8113 39.1298C53.8812 40.3058 54.0306 42.8185 52.276 44.498C52.2471 44.5296 52.2133 44.5675 52.1747 44.6108C51.5365 45.3259 49.5763 47.5225 46.7176 47.2619Z" fill="#011725"/>
</svg>
